<svg class="border shadow-md" viewBox="0 0 625.68 625.68" style="width: 625.68px; height: 625.68px;" xmlns="http://www.w3.org/2000/svg" preserveAspectRatio="none"><rect class="bg" id="bg" x="0" y="0" width="625.68" height="625.68" fill="#ffffff"/><path d="M 0 -62.568 L 0 -62.57&#10;                L 59.00 -25.57&#10;                L 125.136 -62.57 L 125.136 -62.57&#10;                L 166.85 -20.57&#10;                L 250.272 -62.57 L 250.272 -62.57&#10;                L 291.98 -16.57&#10;                L 375.408 -62.57 L 375.408 -62.57&#10;                L 417.12 -31.28&#10;                L 500.544 -62.57 L 500.544 -62.57&#10;                L 542.26 -0.57&#10;                L 625.68 -62.57 L 625.68 -62.57&#10;                L 704.68 -31.28&#10;                L 750.8159999999999 -62.57  V 625.68 H 0 V -62.57 Z" fill="#F95164"/><path d="M 0 0 L 0 0.00&#10;                L 41.71 31.28&#10;                L 125.136 0.00 L 125.136 0.00&#10;                L 173.14 53.00&#10;                L 250.272 0.00 L 250.272 0.00&#10;                L 343.27 31.28&#10;                L 375.408 0.00 L 375.408 0.00&#10;                L 426.41 60.00&#10;                L 500.544 0.00 L 500.544 0.00&#10;                L 542.26 51.00&#10;                L 625.68 0.00 L 625.68 0.00&#10;                L 685.68 31.28&#10;                L 750.8159999999999 0.00  V 625.68 H 0 V 0.00 Z" fill="#e24c61"/><path d="M 0 62.568 L 0 62.57&#10;                L 44.00 93.85&#10;                L 125.136 62.57 L 125.136 62.57&#10;                L 166.85 93.85&#10;                L 250.272 62.57 L 250.272 62.57&#10;                L 342.27 96.57&#10;                L 375.408 62.57 L 375.408 62.57&#10;                L 417.12 93.85&#10;                L 500.544 62.57 L 500.544 62.57&#10;                L 580.54 93.85&#10;                L 625.68 62.57 L 625.68 62.57&#10;                L 667.39 93.85&#10;                L 750.8159999999999 62.57  V 625.68 H 0 V 62.57 Z" fill="#cb475e"/><path d="M 0 125.136 L 0 125.14&#10;                L 41.71 174.14&#10;                L 125.136 125.14 L 125.136 125.14&#10;                L 208.14 156.42&#10;                L 250.272 125.14 L 250.272 125.14&#10;                L 328.27 156.42&#10;                L 375.408 125.14 L 375.408 125.14&#10;                L 417.12 156.42&#10;                L 500.544 125.14 L 500.544 125.14&#10;                L 542.26 186.14&#10;                L 625.68 125.14 L 625.68 125.14&#10;                L 687.68 156.42&#10;                L 750.8159999999999 125.14  V 625.68 H 0 V 125.14 Z" fill="#b4425b"/><path d="M 0 187.704 L 0 187.70&#10;                L 41.71 244.70&#10;                L 125.136 187.70 L 125.136 187.70&#10;                L 213.14 240.70&#10;                L 250.272 187.70 L 250.272 187.70&#10;                L 341.27 225.70&#10;                L 375.408 187.70 L 375.408 187.70&#10;                L 417.12 227.70&#10;                L 500.544 187.70 L 500.544 187.70&#10;                L 542.26 226.70&#10;                L 625.68 187.70 L 625.68 187.70&#10;                L 682.68 240.70&#10;                L 750.8159999999999 187.70  V 625.68 H 0 V 187.70 Z" fill="#9d3d58"/><path d="M 0 250.272 L 0 250.27&#10;                L 41.71 281.56&#10;                L 125.136 250.27 L 125.136 250.27&#10;                L 166.85 281.56&#10;                L 250.272 250.27 L 250.272 250.27&#10;                L 343.27 281.56&#10;                L 375.408 250.27 L 375.408 250.27&#10;                L 417.12 284.27&#10;                L 500.544 250.27 L 500.544 250.27&#10;                L 547.54 300.27&#10;                L 625.68 250.27 L 625.68 250.27&#10;                L 667.39 284.27&#10;                L 750.8159999999999 250.27  V 625.68 H 0 V 250.27 Z" fill="#863855"/><path d="M 0 312.84 L 0 312.84&#10;                L 41.71 344.12&#10;                L 125.136 312.84 L 125.136 312.84&#10;                L 208.14 344.12&#10;                L 250.272 312.84 L 250.272 312.84&#10;                L 309.27 351.84&#10;                L 375.408 312.84 L 375.408 312.84&#10;                L 439.41 362.84&#10;                L 500.544 312.84 L 500.544 312.84&#10;                L 542.26 349.84&#10;                L 625.68 312.84 L 625.68 312.84&#10;                L 688.68 344.12&#10;                L 750.8159999999999 312.84  V 625.68 H 0 V 312.84 Z" fill="#6f3352"/><path d="M 0 375.408 L 0 375.41&#10;                L 69.00 426.41&#10;                L 125.136 375.41 L 125.136 375.41&#10;                L 207.14 406.69&#10;                L 250.272 375.41 L 250.272 375.41&#10;                L 291.98 429.41&#10;                L 375.408 375.41 L 375.408 375.41&#10;                L 417.12 420.41&#10;                L 500.544 375.41 L 500.544 375.41&#10;                L 542.26 406.69&#10;                L 625.68 375.41 L 625.68 375.41&#10;                L 670.68 406.69&#10;                L 750.8159999999999 375.41  V 625.68 H 0 V 375.41 Z" fill="#582e4f"/><path d="M 0 437.976 L 0 437.98&#10;                L 41.71 469.26&#10;                L 125.136 437.98 L 125.136 437.98&#10;                L 191.14 474.98&#10;                L 250.272 437.98 L 250.272 437.98&#10;                L 328.27 469.26&#10;                L 375.408 437.98 L 375.408 437.98&#10;                L 417.12 469.26&#10;                L 500.544 437.98 L 500.544 437.98&#10;                L 573.54 469.26&#10;                L 625.68 437.98 L 625.68 437.98&#10;                L 702.68 479.98&#10;                L 750.8159999999999 437.98  V 625.68 H 0 V 437.98 Z" fill="#41294c"/><path d="M 0 500.544 L 0 500.54&#10;                L 41.71 531.83&#10;                L 125.136 500.54 L 125.136 500.54&#10;                L 167.14 541.54&#10;                L 250.272 500.54 L 250.272 500.54&#10;                L 339.27 531.83&#10;                L 375.408 500.54 L 375.408 500.54&#10;                L 457.41 531.83&#10;                L 500.544 500.54 L 500.544 500.54&#10;                L 542.26 533.54&#10;                L 625.68 500.54 L 625.68 500.54&#10;                L 671.68 546.54&#10;                L 750.8159999999999 500.54  V 625.68 H 0 V 500.54 Z" fill="#2a2449"/><path d="M 0 563.112 L 0 563.11&#10;                L 41.71 594.40&#10;                L 125.136 563.11 L 125.136 563.11&#10;                L 166.85 594.40&#10;                L 250.272 563.11 L 250.272 563.11&#10;                L 291.98 618.11&#10;                L 375.408 563.11 L 375.408 563.11&#10;                L 417.12 600.11&#10;                L 500.544 563.11 L 500.544 563.11&#10;                L 542.26 594.40&#10;                L 625.68 563.11 L 625.68 563.11&#10;                L 714.68 594.40&#10;                L 750.8159999999999 563.11  V 625.68 H 0 V 563.11 Z" fill="#131f46"/></svg>